<svg version="1.2" xmlns="http://www.w3.org/2000/svg" viewBox="0 0 1604 344" width="800" height="172">
	<title>logo2-svg</title>
	<style>
		.s0 { fill: #000000 } 
		.s1 { fill: #ffffff } 
		.s2 { fill: #f67e49 } 
	</style>
	<g id="Layer">
		<g id="Layer">
			<g id="Layer">
				<path id="Layer" fill-rule="evenodd" class="s0" d="m573.6 108.5h-66.5l-13.8 31.2h-18.4l56.7-125.1h17.7l56.8 125.1h-18.7zm-6.3-14.3l-27-61.3-27 61.3z"/>
				<path id="Layer" class="s0" d="m625.8 7.1h17.1v132.7h-17.1z"/>
				<path id="Layer" fill-rule="evenodd" class="s0" d="m834.7 85.9q6.3 7.9 6.3 20.1 0 16.2-12.3 25-12.2 8.7-35.6 8.7h-59.7v-125.1h56.1q21.4 0 33.2 8.6 11.7 8.6 11.7 23.8 0 9.8-4.6 17-4.6 7.1-12.2 10.9 10.9 3 17.1 11zm-83.5-16.8h36.7q13.7 0 21.2-5.1 7.4-5 7.4-14.9 0-9.8-7.4-14.9-7.5-5.1-21.2-5.1h-36.7zm64 51.1q7.7-5 7.7-15.7 0-20.9-30.5-20.9h-41.1v41.6h41.1q15.2 0 22.8-5z"/>
				<path id="Layer" class="s0" d="m899.4 48.4q8.8-4.3 21.3-4.3v16.6q-1.4-0.1-3.9-0.1-14 0-21.9 8.3-8 8.3-8 23.6v47.2h-17.1v-94.7h16.4v15.9q4.5-8.2 13.2-12.5z"/>
				<path id="Layer" fill-rule="evenodd" class="s0" d="m1009.8 53.8q10.5 9.6 10.5 28.7v57.3h-16.3v-12.6q-4.3 6.6-12.2 10.1-8 3.5-18.9 3.5-15.9 0-25.5-7.7-9.5-7.6-9.5-20.2 0-12.5 9.1-20.1 9.1-7.6 28.9-7.6h27.2v-3.4q0-11.1-6.4-17-6.5-5.8-19-5.9-8.4 0-16.4 2.8-8.1 2.8-13.6 7.4l-7.2-12.8q7.4-5.9 17.6-9.1 10.2-3.1 21.6-3.1 19.6 0 30.1 9.7zm-17.1 69.4q7.2-4.4 10.4-12.4v-13.2h-26.5q-21.8 0-21.8 14.6 0 7.2 5.6 11.3 5.5 4.1 15.3 4.1 9.9 0 17-4.4z"/>
				<path id="Layer" fill-rule="evenodd" class="s0" d="m1146.8 126.9q0 24.8-12.3 36.7-12.4 11.9-36.8 11.9-13.5 0-25.6-3.7-12.2-3.6-19.7-10.4l8.3-13.3q6.6 5.8 16.3 9.1 9.7 3.3 20.1 3.3 16.6 0 24.6-7.9 7.9-7.9 7.9-23.9v-7.5q-6 7.3-14.9 10.9-8.8 3.7-19.2 3.7-13.6 0-24.6-5.8-11-5.8-17.2-16.3-6.3-10.4-6.3-23.8 0-13.4 6.3-23.9 6.2-10.4 17.2-16.2 11-5.7 24.6-5.7 10.7 0 19.9 3.9 9.2 4 15.1 11.7v-14.7h16.3zm-32.6-10q7.4-3.9 11.6-11 4.2-7.1 4.2-16 0-13.8-9.1-22.3-9.1-8.4-23.4-8.4-14.5 0-23.6 8.4-9.1 8.5-9.1 22.3 0 8.9 4.2 16 4.1 7.1 11.6 11 7.4 3.9 16.9 3.9 9.3 0 16.7-3.9z"/>
				<path id="Layer" fill-rule="evenodd" class="s0" d="m1273.7 126.9q0 24.8-12.3 36.7-12.4 11.9-36.8 11.9-13.5 0-25.6-3.7-12.2-3.6-19.7-10.4l8.3-13.3q6.6 5.8 16.3 9.1 9.7 3.3 20.1 3.3 16.6 0 24.6-7.9 7.9-7.9 7.9-23.9v-7.5q-6 7.3-14.9 10.9-8.8 3.7-19.2 3.7-13.6 0-24.6-5.8-11-5.8-17.2-16.3-6.3-10.4-6.3-23.8 0-13.4 6.3-23.9 6.2-10.4 17.2-16.2 11-5.7 24.6-5.7 10.7 0 19.9 3.9 9.2 4 15.1 11.7v-14.7h16.3zm-32.6-10q7.4-3.9 11.6-11 4.2-7.1 4.2-16 0-13.8-9.1-22.3-9.1-8.4-23.4-8.4-14.5 0-23.6 8.4-9.1 8.5-9.1 22.3 0 8.9 4.2 16 4.1 7.1 11.6 11 7.4 3.9 16.9 3.9 9.3 0 16.7-3.9z"/>
			</g>
			<g id="Layer">
				<path id="Layer" class="s0" d="m474.9 176.4h9.1v116.9h72.1v8.2h-81.2z"/>
				<path id="Layer" fill-rule="evenodd" class="s0" d="m634.9 216.3q9.3 8.9 9.3 26v59.2h-8.6v-16.6q-4.5 8.2-13.1 12.8-8.5 4.5-20.5 4.5-15.6 0-24.6-7.3-9-7.3-9-19.3 0-11.6 8.3-18.9 8.3-7.2 26.5-7.2h32v-7.5q0-13.1-7-19.9-7.1-6.8-20.7-6.8-9.3 0-17.8 3.3-8.5 3.2-14.3 8.5l-4.5-6.4q7-6.2 16.8-9.7 9.8-3.5 20.5-3.5 17.4 0 26.7 8.8zm-11.9 73.2q8.1-5.3 12.3-15.5v-17.5h-31.9q-13.7 0-19.9 5-6.2 5-6.2 13.7 0 9.1 6.8 14.4 6.8 5.3 19.2 5.3 11.6 0 19.7-5.4z"/>
				<path id="Layer" class="s0" d="m754.3 217.7q10.2 10.1 10.2 29.3v54.5h-9v-53.8q0-15.7-7.9-24-8-8.2-22.3-8.2-16.4 0-25.9 9.8-9.5 9.9-9.5 26.5v49.7h-8.9v-93.3h8.6v20.2q4.8-9.8 14.4-15.4 9.5-5.5 22.6-5.5 17.5 0 27.7 10.2z"/>
				<path id="Layer" fill-rule="evenodd" class="s0" d="m884.4 168.9v132.6h-8.7v-22q-5.6 10.9-15.6 16.8-10 5.9-22.7 5.9-13 0-23.6-6.1-10.5-6-16.5-16.8-6-10.7-6-24.4 0-13.8 6-24.6 6-10.8 16.5-16.8 10.6-6 23.6-6 12.5 0 22.4 5.9 9.9 5.9 15.7 16.4v-60.9zm-27.3 120.3q8.5-5 13.4-14 4.9-8.9 4.9-20.4 0-11.4-4.9-20.3-4.9-9-13.4-14-8.5-5-19.2-5-10.7 0-19.2 5-8.5 5-13.4 14-4.9 8.9-4.9 20.3 0 11.5 4.9 20.4 4.9 9 13.4 14 8.5 5 19.2 5 10.7 0 19.2-5z"/>
				<path id="Layer" class="s0" d="m924.3 298.8q-10.2-3.4-16-8.6l4.2-7.1q5.7 4.8 14.7 8 9 3.2 18.9 3.2 14.1 0 20.8-4.6 6.7-4.7 6.7-12.9 0-5.9-3.7-9.3-3.6-3.4-9-5-5.4-1.6-14.8-3.4-11.1-1.9-17.9-4.3-6.8-2.3-11.6-7.5-4.9-5.1-4.9-14.3 0-11.1 9.2-18.3 9.2-7.2 26.2-7.2 9 0 17.7 2.5 8.8 2.5 14.3 6.6l-4.1 7.1q-5.7-4.1-13-6.2-7.4-2.2-15-2.2-13.1 0-19.7 4.9-6.6 4.8-6.6 12.6 0 6.3 3.7 9.8 3.8 3.5 9.2 5.2 5.5 1.7 15.3 3.6 10.9 2 17.6 4.2 6.7 2.3 11.4 7.3 4.6 5 4.6 13.7 0 11.7-9.6 18.6-9.7 7-27.2 7-11.2 0-21.4-3.4z"/>
				<path id="Layer" class="s0" d="m1080.8 217.7q10.2 10.1 10.2 29.3v54.5h-8.9v-53.8q0-15.7-8-24-7.9-8.2-22.2-8.2-16.5 0-25.9 9.8-9.5 9.9-9.5 26.5v49.7h-8.9v-132.6h8.9v58.8q4.8-9.7 14.3-14.9 9.5-5.3 22.3-5.3 17.5 0 27.7 10.2z"/>
				<path id="Layer" fill-rule="evenodd" class="s0" d="m1185.9 216.3q9.3 8.9 9.3 26v59.2h-8.6v-16.6q-4.4 8.2-13 12.8-8.6 4.5-20.5 4.5-15.6 0-24.6-7.3-9.1-7.3-9.1-19.3 0-11.6 8.4-18.9 8.3-7.2 26.5-7.2h32v-7.5q0-13.1-7.1-19.9-7-6.8-20.6-6.8-9.3 0-17.8 3.3-8.5 3.2-14.4 8.5l-4.5-6.4q7-6.2 16.8-9.7 9.9-3.5 20.6-3.5 17.3 0 26.6 8.8zm-11.9 73.2q8.2-5.3 12.3-15.5v-17.5h-31.8q-13.8 0-20 5-6.1 5-6.1 13.7 0 9.1 6.8 14.4 6.7 5.3 19.1 5.3 11.6 0 19.7-5.4z"/>
				<path id="Layer" fill-rule="evenodd" class="s0" d="m1302.5 213.5q10.5 6.1 16.5 16.8 6 10.8 6 24.5 0 13.8-6 24.6-6 10.8-16.5 16.8-10.6 6-23.6 6-12.4 0-22.4-5.8-10-5.8-15.5-16.2v56h-8.9v-128h8.5v22q5.6-10.8 15.7-16.7 10.1-6 22.6-6 13 0 23.6 6zm-4.8 75.7q8.5-5 13.5-14 4.9-8.9 4.9-20.4 0-11.4-4.9-20.3-5-9-13.5-14-8.6-5-19.3-5-10.8 0-19.3 5-8.4 5-13.4 14-4.9 8.9-4.9 20.3 0 11.5 4.9 20.4 5 9 13.4 14 8.5 5 19.3 5 10.7 0 19.3-5z"/>
				<path id="Layer" class="s0" d="m1352 183.4q-2.2-2-2.2-5.1 0-3 2.2-5.1 2.1-2.2 5.2-2.2 3 0 5.1 2.1 2.2 2 2.2 5.1 0 3-2.2 5.1-2.1 2.2-5.1 2.2-3.1 0-5.2-2.1zm0.7 24.8h8.9v93.3h-8.9z"/>
				<path id="Layer" class="s0" d="m1472.6 217.7q10.2 10.1 10.2 29.3v54.5h-8.9v-53.8q0-15.7-8-24-7.9-8.2-22.2-8.2-16.5 0-25.9 9.8-9.5 9.9-9.5 26.5v49.7h-9v-93.3h8.6v20.2q4.9-9.8 14.4-15.4 9.6-5.5 22.6-5.5 17.5 0 27.7 10.2z"/>
				<path id="Layer" fill-rule="evenodd" class="s0" d="m1603.8 291.5q0 23.2-11.2 34.3-11.3 11.1-34 11.1-12.9 0-24.3-4-11.5-3.9-18.4-10.9l4.8-6.7q7 6.4 16.8 10 9.8 3.5 20.9 3.5 18.6 0 27.5-8.8 9-8.9 9-27.5v-15.7q-5.7 10.2-15.9 15.7-10.2 5.6-22.9 5.6-13.1 0-23.7-5.8-10.6-5.8-16.7-16.2-6.1-10.4-6.1-23.4 0-13.1 6.1-23.4 6.1-10.4 16.7-16.1 10.7-5.7 23.7-5.8 12.9 0.1 23.2 5.8 10.4 5.7 15.9 16.1v-21.1h8.6zm-27.3-6.2q8.7-4.7 13.7-13.2 4.9-8.5 4.9-19.4 0-10.9-4.9-19.3-5-8.4-13.7-13.2-8.8-4.7-19.7-4.7-10.9 0-19.5 4.7-8.7 4.8-13.6 13.2-4.9 8.4-4.9 19.3 0 10.9 4.9 19.4 4.9 8.5 13.6 13.2 8.6 4.7 19.5 4.7 10.9 0 19.7-4.7z"/>
			</g>
		</g>
		<g id="Layer">
			<path id="Layer" class="s0" d="m399.3 343.6h-101l-99.5-248.1-99.6 248.1h-99l151.5-343.2h95.6z"/>
			<path id="Layer" class="s0" d="m369.8 293.6c-5.1 10.6-12.4 17.5-21.8 20.7-10.9 3.7-21.7 1.1-27.4-0.9l-9.6 6.7c-1.8 1.2-3.9 1.6-5.9 1.2l-14.9-3.5-17.7 12.1c-1.3 0.9-2.7 1.3-4.2 1.3-1.2 0-2.4-0.3-3.5-0.9-2.4-1.3-3.9-3.8-3.9-6.5l0.1-9.4-139-41.7c-1.3-0.4-2.4-1.1-3.3-2l-15.7-16.9-7.6 2.8c-3.1 1.2-6.6 0.2-8.5-2.5l-17.9-24.1c-1.4-1.9-1.8-4.3-1.1-6.6l53.6-169.2c0.8-2.6 3.1-4.6 5.8-5 2.8-0.5 5.6 0.7 7.2 3l44 60.9c1.4 2 1.8 4.7 0.9 7l-24.4 64.1c4.6 5.1 9 13.3 7.7 23l135.3 57.4c5.2-6.6 15.6-21.8 23.6-46.1 0.9-2.7 3.3-4.6 6.1-5 2.8-0.4 5.5 0.9 7.1 3.2l0.1 0.2c2.9-4.5 5.9-11.6 4.9-21-0.4-3.6 1.9-6.9 5.4-7.9 3.5-0.9 7.1 0.8 8.7 4.1 3.2 7 31.1 69.8 15.9 101.5z"/>
			<path id="Layer" fill-rule="evenodd" class="s1" d="m363.1 290.4c-14.1 29.5-43.5 14.6-43.5 14.6l-12.9 9-18-4.2-20.4 14 0.1-14.9-144.3-43.3-19.1-20.5-12.2 4.6-17.9-24.1 53.6-169.1 44 60.9-26.1 68.8c0 0 13.7 10.1 7.6 25.2l146.2 62.1c0 0 16.5-16.9 28.4-52.7l5.4 8c0 0 15.4-11.5 13.1-33.6 0 0 30.2 65.8 16 95.2zm-247.3-71.6c-5.6-1-10.8 2.8-11.7 8.3-1 5.6 2.8 10.8 8.3 11.7 5.6 0.9 10.8-2.8 11.7-8.3 0.9-5.6-2.8-10.8-8.3-11.7zm12.1-132.2l-37.3 117.6 25.1 1.6zm10.9 124.1c4.1 0.7 8-2.1 8.7-6.3 0.7-4.1-2.1-8-6.3-8.7-4.1-0.6-8 2.1-8.7 6.3-0.6 4.1 2.1 8 6.3 8.7zm127.1 87.2l-4.3-25.7-124.6-29.3-1.7 10.5zm23.9-18.3c-5.5-1-10.7 2.8-11.6 8.3-1 5.5 2.8 10.8 8.3 11.7 5.5 0.9 10.8-2.8 11.7-8.3 0.9-5.6-2.9-10.8-8.4-11.7z"/>
			<g id="Layer">
				<g id="Layer">
					<path id="Layer" class="s2" d="m112.4 238.8c-5.5-0.9-9.2-6.1-8.3-11.7 0.9-5.5 6.1-9.2 11.6-8.3 5.6 0.9 9.3 6.1 8.4 11.7-0.9 5.5-6.2 9.2-11.7 8.3z"/>
					<path id="Layer" class="s2" d="m132.6 202c0.7-4.2 4.5-7 8.7-6.3 4.1 0.7 6.9 4.6 6.2 8.7-0.7 4.2-4.6 6.9-8.7 6.3-4.1-0.7-6.9-4.6-6.2-8.7z"/>
					<path id="Layer" class="s2" d="m298.2 291.3c-0.9 5.5-6.2 9.2-11.7 8.3-5.5-0.9-9.3-6.1-8.3-11.7 0.9-5.5 6.1-9.2 11.6-8.3 5.6 0.9 9.3 6.1 8.4 11.7z"/>
				</g>
			</g>
		</g>
	</g>
</svg>